<?xml version="1.0" standalone="no"?>
<!DOCTYPE svg PUBLIC "-//W3C//DTD SVG 20010904//EN"
 "http://www.w3.org/TR/2001/REC-SVG-20010904/DTD/svg10.dtd">
<svg version="1.0" xmlns="http://www.w3.org/2000/svg"
 width="1520.000000pt" height="1520.000000pt" viewBox="0 0 1520.000000 1520.000000"
 preserveAspectRatio="xMidYMid meet">
<metadata>
Created by potrace 1.14, written by Peter Selinger 2001-2017
</metadata>
<g transform="translate(0.000000,1520.000000) scale(0.100000,-0.100000)"
fill="#000000" stroke="none">
<path d="M2258 10995 c-2 -1 -48 -6 -103 -9 -55 -3 -111 -8 -125 -10 -14 -3
-43 -7 -65 -11 -22 -3 -56 -8 -75 -11 -149 -23 -363 -91 -515 -165 -94 -46
-251 -148 -313 -202 -81 -72 -157 -143 -165 -154 -4 -7 -41 -51 -82 -98 -75
-85 -155 -189 -155 -200 0 -3 -9 -16 -20 -28 -55 -58 -247 -477 -275 -597 -2
-8 -9 -28 -15 -45 -7 -16 -14 -39 -16 -50 -7 -35 -12 -59 -24 -110 -6 -27 -14
-61 -16 -75 -2 -14 -9 -47 -14 -75 -5 -27 -12 -72 -16 -100 -3 -27 -8 -53 -10
-56 -2 -4 -6 -28 -9 -55 -3 -27 -7 -60 -10 -74 -5 -26 -11 -66 -21 -140 -3
-25 -7 -56 -9 -70 -2 -14 -7 -49 -10 -79 -4 -30 -8 -62 -10 -70 -2 -9 -6 -45
-10 -81 -4 -36 -9 -74 -11 -85 -2 -11 -6 -42 -9 -70 -4 -27 -8 -61 -10 -75 -2
-14 -6 -47 -10 -75 -3 -27 -8 -66 -10 -85 -3 -19 -7 -60 -10 -90 -3 -30 -7
-68 -10 -85 -2 -16 -7 -57 -10 -90 -4 -33 -8 -67 -11 -76 -2 -9 -7 -50 -10
-90 -2 -41 -6 -87 -9 -104 -2 -16 -6 -55 -10 -85 -3 -30 -8 -73 -10 -95 -3
-22 -8 -69 -11 -105 -3 -36 -7 -81 -9 -100 -10 -88 -18 -234 -19 -325 -1 -99
-1 -100 23 -97 13 1 37 9 55 16 17 8 74 32 126 54 52 22 127 54 165 72 39 18
95 44 125 57 30 14 98 46 150 71 52 25 97 46 100 47 30 10 538 262 638 316 81
44 79 38 122 299 6 36 13 83 15 105 2 22 6 54 9 70 2 17 7 55 11 86 3 31 7 65
9 75 2 11 7 48 10 84 4 36 8 75 10 85 2 11 7 58 11 105 4 47 9 92 10 100 2 9
6 47 10 85 7 72 11 115 19 175 3 19 7 60 10 90 4 30 8 66 11 80 2 14 7 50 10
80 2 30 7 66 9 80 6 33 24 155 31 205 3 22 7 47 10 55 2 8 6 32 9 52 10 65 56
251 81 326 77 230 207 347 452 407 81 19 250 16 330 -6 37 -11 76 -21 86 -24
36 -8 122 -61 170 -105 32 -28 59 -65 74 -99 24 -54 28 -70 40 -161 12 -94 5
-477 -12 -635 -2 -22 -7 -74 -10 -115 -4 -41 -8 -95 -10 -120 -2 -25 -6 -67
-10 -95 -3 -27 -8 -68 -10 -90 -1 -22 -6 -67 -10 -100 -4 -33 -9 -76 -10 -95
-2 -19 -4 -35 -5 -35 0 0 -3 -22 -5 -50 -3 -27 -8 -68 -11 -90 -3 -22 -7 -59
-9 -82 l-3 -41 118 49 c65 26 158 66 205 89 48 22 88 40 90 40 2 0 50 22 107
49 56 26 130 61 163 76 33 15 110 51 170 80 211 100 456 216 576 273 47 22 86
46 86 54 1 17 14 143 20 183 6 44 9 435 3 435 -3 0 -6 24 -6 53 -1 52 -10 129
-19 177 -3 14 -7 48 -9 75 -3 28 -7 57 -10 65 -3 8 -8 32 -11 54 -3 21 -7 41
-9 45 -2 3 -7 22 -10 41 -12 77 -57 204 -115 324 -34 70 -66 133 -71 139 -6 7
-33 42 -61 80 -48 64 -165 188 -220 233 -46 37 -148 104 -158 104 -6 0 -11 4
-11 8 0 7 -62 38 -180 90 -79 35 -174 64 -315 97 -11 3 -36 7 -55 10 -19 3
-46 7 -59 9 -13 3 -46 8 -75 11 -28 3 -69 8 -91 11 -41 6 -631 14 -637 9z"/>
<path d="M13157 10994 c-1 -1 -54 -5 -117 -8 -63 -3 -125 -8 -137 -10 -12 -3
-48 -7 -80 -11 -58 -6 -107 -13 -147 -21 -11 -2 -37 -7 -56 -10 -55 -10 -59
-11 -170 -39 -58 -14 -112 -29 -120 -32 -8 -3 -19 -7 -25 -8 -5 0 -17 -4 -25
-7 -8 -3 -55 -20 -105 -38 -49 -17 -108 -40 -130 -49 -22 -10 -69 -31 -105
-47 -110 -48 -353 -190 -397 -231 -7 -6 -29 -21 -50 -34 -20 -13 -45 -30 -54
-39 -9 -8 -41 -35 -70 -60 -84 -71 -249 -238 -316 -320 -143 -178 -285 -421
-358 -617 -14 -37 -30 -72 -35 -78 -5 -7 -8 -14 -5 -16 2 -3 -7 -38 -20 -78
-14 -40 -27 -82 -29 -94 -2 -12 -8 -40 -14 -62 -11 -44 -27 -146 -24 -157 1
-5 -1 -8 -6 -8 -4 0 -8 -17 -8 -38 -1 -20 -5 -107 -10 -192 -12 -238 -4 -486
21 -670 1 -14 6 -50 10 -80 3 -30 11 -73 16 -95 5 -22 12 -55 14 -73 3 -17 17
-62 31 -100 14 -37 32 -87 41 -112 8 -25 19 -49 23 -55 4 -5 10 -23 14 -40 24
-97 227 -454 328 -575 99 -118 131 -153 203 -225 109 -109 240 -220 307 -260
9 -5 49 -32 89 -59 76 -51 239 -141 299 -166 19 -8 37 -17 40 -20 3 -3 19 -11
35 -17 69 -26 161 -61 180 -68 11 -4 27 -9 36 -11 9 -2 29 -9 45 -15 16 -7 34
-13 39 -15 92 -25 193 -48 250 -59 29 -5 123 -16 175 -21 25 -2 68 -7 95 -10
127 -17 830 -8 928 12 12 2 45 7 72 10 28 4 93 17 145 31 52 14 102 26 110 28
23 6 102 34 125 45 11 5 63 26 115 46 128 50 355 166 465 238 92 60 198 160
232 218 43 75 21 154 -54 194 -50 27 -103 25 -163 -5 -45 -22 -60 -34 -200
-162 -99 -89 -150 -128 -235 -175 -97 -54 -221 -110 -264 -119 -9 -2 -45 -13
-81 -24 -36 -11 -103 -27 -150 -35 -117 -21 -131 -23 -191 -31 -30 -3 -72 -8
-94 -11 -22 -3 -208 -8 -412 -11 l-373 -5 4 2073 c5 2137 6 2257 31 2404 2 11
4 24 4 28 1 4 18 15 39 25 31 13 74 16 257 16 265 1 390 -8 585 -40 144 -24
153 -26 180 -37 12 -5 118 -35 180 -51 47 -13 173 -63 242 -97 70 -36 224
-132 238 -149 10 -13 139 -99 176 -118 72 -37 121 -33 167 13 51 51 58 125 20
185 -38 59 -130 133 -249 201 -54 30 -213 109 -221 109 -3 0 -36 14 -72 31
-86 41 -247 100 -288 106 -18 3 -33 9 -33 15 0 5 -4 7 -8 4 -4 -3 -26 0 -48 5
-43 11 -67 16 -104 24 -14 3 -36 8 -50 11 -14 3 -38 7 -55 8 -16 2 -57 7 -89
11 -33 4 -83 9 -110 11 -79 7 -445 21 -449 18z"/>
<path d="M5488 10934 c-2 -2 -109 -10 -176 -13 -53 -3 -56 -152 -56 -2756 l-1
-2210 120 2 c109 1 368 6 900 18 242 5 589 15 680 20 127 6 309 16 355 20 113
8 207 17 230 20 14 2 52 7 85 10 33 4 67 8 75 10 8 2 33 7 55 10 64 9 94 15
225 45 74 17 246 72 259 83 8 7 15 10 15 7 2 -8 135 51 256 114 63 32 129 66
145 74 17 8 32 18 35 22 3 3 30 21 60 40 60 37 159 108 175 126 6 6 42 37 80
69 73 60 347 335 387 387 13 16 45 57 72 91 26 33 56 73 64 87 9 14 22 31 29
38 13 14 84 156 139 282 92 210 155 472 180 760 8 91 8 367 0 433 -3 26 -8 66
-11 90 -13 113 -16 134 -21 162 -4 17 -8 41 -10 55 -11 100 -113 422 -180 568
-13 28 -23 53 -21 55 1 1 -8 16 -21 34 -12 17 -22 36 -22 42 0 6 -4 11 -10 11
-5 0 -10 5 -10 11 0 14 -100 162 -112 167 -4 2 -8 10 -8 17 0 7 -4 15 -8 17
-5 2 -36 37 -69 78 -76 95 -268 290 -353 361 -36 30 -67 57 -70 60 -3 3 -32
24 -65 46 -108 73 -364 194 -515 243 -223 73 -344 105 -477 125 -11 2 -29 5
-40 8 -17 6 -43 9 -170 22 -80 8 -314 20 -643 31 -161 5 -1548 13 -1552 8z
m1937 -279 c61 -3 126 -7 145 -9 79 -9 136 -17 156 -21 12 -3 39 -7 60 -10 21
-3 59 -10 84 -16 25 -5 55 -11 68 -14 12 -2 25 -6 30 -8 4 -3 24 -8 45 -11 32
-5 232 -65 277 -83 8 -4 17 -7 20 -7 3 -1 14 -7 25 -13 11 -5 38 -16 60 -23
22 -7 64 -26 93 -41 28 -16 52 -26 52 -22 0 3 8 0 18 -8 9 -8 34 -23 54 -33
21 -11 76 -44 122 -75 281 -187 505 -468 660 -826 7 -16 18 -41 24 -55 50
-113 119 -371 137 -509 3 -20 7 -49 10 -66 24 -136 24 -485 1 -622 -3 -15 -8
-50 -12 -78 -3 -27 -8 -53 -10 -56 -2 -3 -6 -21 -9 -40 -14 -81 -74 -283 -108
-361 -8 -18 -23 -53 -33 -78 -10 -25 -50 -99 -88 -165 -61 -106 -104 -168
-203 -295 -33 -42 -238 -246 -279 -277 -16 -12 -42 -33 -59 -47 -43 -37 -44
-37 -118 -89 -37 -26 -70 -47 -73 -47 -3 0 -20 -10 -37 -23 -18 -13 -61 -38
-97 -57 -36 -18 -66 -37 -68 -42 -2 -4 -11 -8 -21 -8 -9 0 -21 -4 -27 -9 -8
-8 -194 -89 -219 -95 -5 -2 -17 -5 -25 -9 -26 -9 -124 -39 -140 -42 -8 -2 -35
-8 -60 -15 -50 -14 -70 -18 -119 -26 -18 -3 -43 -8 -55 -10 -11 -2 -41 -7 -66
-10 -25 -3 -56 -8 -70 -10 -46 -9 -273 -26 -510 -38 l-25 -1 0 2200 c0 2119 0
2200 18 2205 20 5 197 3 372 -5z"/>
<path d="M4555 8486 c-33 -13 -73 -28 -90 -35 -30 -12 -44 -19 -140 -62 -27
-13 -52 -24 -55 -24 -8 -3 -93 -42 -219 -101 -62 -30 -119 -54 -126 -54 -7 0
-15 -3 -17 -7 -1 -5 -19 -16 -38 -25 -19 -9 -129 -62 -244 -117 -115 -56 -213
-101 -217 -101 -5 0 -9 -4 -9 -10 0 -5 -9 -10 -19 -10 -11 0 -21 -3 -23 -7 -1
-5 -38 -26 -80 -48 -99 -51 -106 -57 -112 -86 -2 -13 -9 -44 -14 -69 -6 -25
-13 -65 -17 -90 -3 -25 -8 -57 -11 -72 -11 -70 -13 -86 -19 -137 -4 -30 -8
-62 -10 -71 -3 -14 -11 -79 -20 -160 -1 -14 -5 -50 -9 -80 -3 -30 -8 -74 -11
-98 -2 -23 -7 -68 -10 -100 -3 -31 -8 -75 -10 -97 -2 -22 -8 -78 -14 -125 -6
-47 -13 -112 -17 -145 -4 -33 -8 -73 -10 -90 -2 -16 -6 -46 -8 -65 -5 -44 -10
-75 -51 -355 -5 -33 -14 -83 -31 -160 -1 -5 -5 -27 -8 -49 -3 -21 -8 -41 -11
-45 -2 -4 -6 -18 -9 -32 -11 -60 -67 -210 -99 -266 -56 -98 -114 -154 -216
-207 -49 -25 -181 -67 -191 -61 -5 3 -11 1 -14 -4 -6 -10 -207 -8 -271 2 -57
10 -182 56 -196 73 -6 8 -18 14 -26 14 -8 0 -40 27 -72 59 -80 84 -99 142
-107 326 -7 156 -7 174 1 330 10 201 18 305 41 530 3 28 6 68 8 90 2 22 7 67
10 100 4 33 9 78 12 100 6 60 15 127 19 153 2 12 7 56 10 97 l7 74 -109 -45
c-59 -25 -124 -53 -143 -61 -19 -9 -37 -17 -40 -18 -3 0 -36 -16 -74 -33 -38
-18 -73 -32 -77 -32 -5 0 -9 -4 -9 -10 0 -5 -3 -9 -7 -8 -9 2 -30 -7 -148 -62
-49 -23 -119 -55 -155 -72 -36 -16 -117 -55 -180 -85 -63 -30 -144 -69 -180
-85 -36 -17 -72 -34 -80 -39 -8 -5 -22 -12 -30 -16 -8 -3 -66 -30 -128 -60
-63 -29 -117 -53 -122 -53 -13 0 -34 -31 -36 -54 -2 -37 -14 -160 -20 -201
-12 -91 -4 -456 11 -525 3 -14 8 -45 10 -70 3 -25 7 -61 11 -80 3 -19 6 -48 8
-65 2 -16 6 -43 10 -60 13 -59 17 -80 23 -110 8 -50 64 -216 83 -250 10 -18
17 -35 14 -38 -2 -2 2 -10 11 -17 8 -7 15 -20 15 -30 0 -9 9 -29 20 -43 11
-14 20 -28 20 -32 0 -3 14 -26 30 -50 16 -24 30 -46 30 -49 0 -3 8 -14 17 -25
10 -10 28 -32 41 -49 90 -119 275 -265 439 -346 75 -37 233 -98 291 -111 142
-34 197 -46 247 -51 33 -3 63 -8 66 -10 41 -25 820 -25 944 0 18 3 100 15 150
21 75 10 293 70 350 97 12 5 27 10 35 12 20 3 213 95 220 104 3 4 22 16 43 27
20 11 37 22 37 26 0 4 14 12 30 19 17 7 30 16 30 21 0 5 6 9 13 9 7 0 20 8 29
18 9 9 37 35 64 57 81 67 184 176 270 284 10 13 26 31 34 41 71 78 232 365
293 520 75 192 135 396 152 515 3 22 8 47 10 55 2 8 7 35 10 60 6 42 9 64 20
130 6 35 15 90 21 125 3 17 7 49 9 73 2 23 6 55 9 70 3 15 8 47 11 72 2 25 7
63 11 85 3 22 7 51 9 65 1 14 6 50 9 80 4 30 9 69 11 85 2 17 6 44 9 60 2 17
7 57 11 90 3 33 8 71 10 85 2 14 7 52 10 85 3 33 8 74 11 90 3 17 7 48 9 70 7
85 15 161 20 190 6 42 16 131 20 185 2 25 7 68 10 95 3 28 8 73 10 100 4 53
12 128 20 207 11 103 19 265 16 336 -1 26 0 26 -76 -2z"/>
<path d="M5297 4972 c-15 -3 -23 -38 -18 -74 1 -12 2 -62 1 -108 -1 -25 -1
-49 0 -55 1 -5 2 -44 3 -85 l2 -75 133 -1 132 -2 0 33 0 33 -82 0 c-46 0 -88
0 -93 1 -6 1 -10 25 -11 55 l0 54 56 0 c108 0 105 -1 106 32 l2 30 -83 0 -82
0 1 48 1 47 93 3 92 3 0 29 c0 17 -6 31 -12 31 -33 3 -226 4 -241 1z"/>
<path d="M6322 4971 c-5 -3 -9 -94 -8 -201 l1 -195 40 0 40 0 0 133 c0 72 0
132 1 132 5 0 104 -170 104 -179 0 -6 4 -11 9 -11 5 0 18 -17 28 -37 16 -34
22 -38 61 -41 23 -1 42 1 43 5 5 40 2 368 -3 382 -4 13 -16 18 -40 17 -27 -2
-33 -6 -32 -24 0 -12 -2 -22 -5 -22 -3 0 -5 -51 -3 -112 l2 -113 -24 40 c-14
22 -31 51 -38 65 -7 14 -15 27 -19 30 -3 3 -23 34 -45 70 -35 58 -43 65 -71
66 -18 0 -36 -2 -41 -5z"/>
<path d="M7510 4958 c-32 -16 -51 -35 -65 -64 -26 -52 -27 -59 -26 -127 1 -60
20 -118 49 -151 45 -50 154 -62 233 -25 l46 21 2 84 c1 46 -2 84 -6 85 -11 1
-81 1 -120 0 -30 -1 -33 -4 -33 -32 0 -28 2 -30 29 -26 37 6 46 -1 47 -38 1
-38 -21 -55 -69 -53 -29 2 -45 9 -63 31 -13 16 -25 34 -25 40 -6 54 -4 127 3
149 25 74 120 86 148 18 9 -23 16 -27 46 -25 46 4 48 7 31 47 -33 79 -142 110
-227 66z"/>
<path d="M8540 4970 c-10 -6 -12 -66 -11 -261 l1 -136 134 0 c118 0 135 2 139
17 10 38 -8 46 -102 46 l-89 -1 -1 57 0 56 74 -1 c80 -1 82 0 85 23 6 38 1 40
-79 40 l-80 0 1 50 c0 32 4 50 11 49 7 -1 49 -1 95 0 l82 1 0 33 0 32 -126 0
c-69 0 -130 -2 -134 -5z"/>
<path d="M9566 4971 c-2 -3 -3 -94 -2 -201 l1 -195 40 0 40 0 1 125 c1 69 2
127 3 130 2 7 121 -191 121 -201 0 -5 5 -9 10 -9 6 0 10 -5 10 -11 0 -21 29
-39 64 -39 l36 0 1 63 c2 177 1 328 -3 333 -9 8 -48 13 -63 7 -12 -4 -15 -29
-15 -124 0 -65 -4 -119 -9 -119 -5 0 -14 7 -21 15 -7 8 -9 15 -5 15 5 0 1 8
-7 18 -9 9 -39 56 -67 105 -29 48 -55 88 -59 88 -31 5 -73 5 -76 0z"/>
<path d="M10694 4970 c-16 -6 -18 -24 -18 -198 -1 -207 -2 -202 54 -202 21 0
29 5 29 18 0 9 0 49 1 87 l1 70 77 1 c42 0 79 -3 82 -8 3 -4 5 -43 5 -87 -2
-86 -1 -87 61 -75 21 4 21 8 21 199 0 107 -4 195 -9 196 -4 1 -19 1 -33 1 -14
0 -29 0 -33 -1 -5 -1 -8 -37 -8 -81 l1 -81 -85 3 c-70 2 -84 6 -81 18 6 22 3
129 -4 140 -6 10 -33 10 -61 0z"/>
<path d="M11919 4968 c-10 -4 -19 -13 -19 -20 0 -13 -59 -175 -86 -235 -8 -17
-14 -37 -14 -45 0 -8 -4 -18 -9 -23 -5 -6 -12 -24 -15 -41 -7 -31 -6 -32 33
-32 40 -1 43 2 64 69 4 14 19 16 78 15 l73 -1 16 -40 c14 -38 18 -41 56 -42
44 -1 47 6 24 62 -4 11 -27 70 -50 130 -85 224 -79 213 -106 211 -14 0 -34 -4
-45 -8z m53 -144 c5 -16 11 -37 13 -47 2 -10 7 -27 10 -37 5 -17 1 -19 -39
-17 -25 1 -46 6 -46 12 -1 25 36 125 44 122 6 -2 14 -17 18 -33z"/>
<path d="M12895 4965 c-2 -5 -3 -95 -2 -200 l2 -190 34 -3 c43 -4 50 8 46 80
-2 46 1 60 14 67 30 16 58 -6 91 -71 37 -73 43 -78 92 -76 36 1 41 12 16 44
-15 20 -58 109 -58 120 0 6 11 20 25 30 39 29 49 105 19 151 -26 41 -70 55
-177 57 -62 1 -100 -2 -102 -9z m195 -73 c19 -16 22 -24 16 -55 -7 -38 -23
-48 -84 -52 -40 -3 -44 3 -46 71 l-2 54 47 0 c30 0 55 -6 69 -18z"/>
<path d="M13979 4961 c-1 -9 -2 -98 -3 -199 -1 -175 0 -183 19 -187 11 -3 29
-3 40 -2 19 4 20 12 20 202 l0 198 -37 2 c-28 1 -38 -3 -39 -14z"/>
<path d="M14959 4940 c-6 -19 -15 -39 -19 -45 -4 -5 -11 -23 -15 -40 -10 -37
-9 -34 -24 -70 -6 -16 -21 -55 -32 -85 -11 -30 -27 -69 -34 -86 -17 -39 -12
-44 36 -44 35 0 38 3 52 43 l14 42 73 0 73 0 15 -43 c14 -42 15 -43 56 -40 22
2 40 8 39 13 -1 6 -16 46 -32 90 -16 44 -39 107 -51 140 -19 53 -35 92 -60
144 -4 9 -22 15 -43 16 -34 0 -38 -2 -48 -35z m76 -140 c10 -30 20 -61 23 -68
3 -9 -9 -12 -44 -10 -27 2 -49 5 -48 8 3 29 40 138 45 132 4 -4 15 -32 24 -62z"/>
</g>
</svg>
