<svg width="637" height="286" viewBox="0 0 637 286" fill="none" xmlns="http://www.w3.org/2000/svg">
<path d="M194.073 104.902L194.169 106.183L194.185 106.973L194.105 109.487L194.042 110.878L193.675 116.348L193.293 120.805L193.086 123.129L192.592 128.314L192.322 130.986L191.733 136.74L191.111 142.605L189.662 155.33L188.914 161.733L187.305 174.553L186.907 177.699L186.111 183.769L184.535 195.167L183.77 200.209L183.404 202.644L182.719 206.928L182.369 208.951L181.748 212.303L180.936 216.097L179.694 220.981L176.54 230.024L174.852 234.434L170.839 242.544L168.721 246.48L163.833 253.641L155.552 263.284L153.513 265.339L149.262 268.975L147.112 270.714L142.589 273.765L140.296 275.219L135.455 277.717L132.971 278.886L127.7 280.847L125.008 281.763L119.26 283.202L116.313 283.866L109.991 284.83L106.743 285.241L99.7678 285.747L88.525 286H85.1331L79.1773 285.794L76.3108 285.668L71.1672 285.225L68.667 284.957L64.0966 284.245L61.8513 283.85L57.5835 282.823L55.0037 282.159L50.1785 280.499L47.8057 279.629L43.3946 277.558L41.2448 276.468L37.2636 273.986L35.3367 272.69L31.7696 269.781L30.0498 268.263L26.8967 264.928L25.3839 263.205L22.6448 259.442L21.339 257.498L19.014 253.293L15.9724 246.48L15.4947 245.199L14.571 242.069L14.1251 240.441L13.313 236.758L12.5168 232.948L11.3543 224.427L10.8447 220.128L10.3669 211.686L10.3032 209.647L10.3351 205.853L10.6217 200.731L11.6727 190.456L37.4069 178.22L40.9422 176.529L47.8694 173.272L51.2614 171.692L61.3894 166.997L62.6475 166.428L64.7973 165.447L65.8165 165.005L67.4408 164.278L69.1766 163.55L75.212 161.116L73.731 173.462L72.7756 182.236L72.3297 186.472L71.6131 194.171L71.2946 197.87L70.8328 204.509L70.6417 207.703L70.4187 213.299L70.3391 215.986L70.3709 220.57L70.4187 222.752L70.7054 226.372L70.8805 228.048L71.406 230.703L72.4571 233.628L73.11 234.798L74.9254 236.853L75.9127 237.833L78.2696 239.493L79.5117 240.283L82.3144 241.516L83.7635 242.069L86.8689 242.86L88.4454 243.192L91.7418 243.508L93.398 243.587L96.7581 243.397L98.4301 243.239L101.711 242.512L106.44 240.789L108.001 240.062L110.724 238.291L112.014 237.327L114.259 234.892L115.342 233.565L117.205 230.15L118.097 228.285L119.69 223.574L120.072 222.309L120.804 219.48L121.155 218.009L121.839 214.737L122.19 213.046L122.843 209.315L123.177 207.386L123.83 203.15L124.148 200.968L124.785 196.178L125.104 193.728L125.757 188.369L126.075 185.603L126.744 179.627L127.779 169.905L128.273 165.115L129.324 156.279L129.579 154.16L130.088 150.224L130.343 148.311L130.837 144.881L131.076 143.237L131.522 140.392L131.744 139.048L132.158 136.898L132.35 135.934L132.684 134.574L133.098 133.547L133.305 133.341L134.34 132.693L134.929 132.314L136.649 131.349L137.589 130.844L139.898 129.626L141.108 128.978L143.911 127.555L146.793 126.101L153.577 122.766L157.065 121.074L168.069 115.842L175.139 112.585L178.547 111.02L184.471 108.38L185.84 107.795L188.229 106.784L189.36 106.309L191.175 105.582L191.987 105.266L193.134 104.902L193.946 104.792M563.175 0.49004L565.579 0.616502L570.086 0.980087L572.283 1.16978L576.424 1.67565L580.501 2.21312L587.969 3.85716L591.648 4.78984L598.83 7.30332L610.041 12.2829L611.761 13.1365L614.818 14.7964L616.267 15.6026L618.783 17.1834L619.962 17.9738L621.952 19.4756L622.876 20.2343L624.325 21.6887L624.994 22.4159L625.933 23.807L626.348 24.5025L626.777 25.862L626.921 26.5418L626.857 27.8538L626.188 29.814L625.551 30.968L623.991 32.3433L623.147 32.865L621.045 32.9282L619.93 32.8176L617.223 31.5846L612.366 28.2649L610.136 26.5102L605.789 23.5699L603.591 22.1945L598.941 19.855L596.553 18.7326L591.202 16.7882L581.902 14.1008L580.437 13.7214L576.933 13.0733L575.118 12.7571L571.105 12.2196L566.996 11.7138L558.349 11.1289L556.231 11.034L552.218 10.9392L550.26 10.9234L546.756 11.0024L545.084 11.0815L542.361 11.3502L539.415 11.9983L539.128 12.109L538.666 12.8678L538.444 13.3894L538.077 15.3655L537.982 15.9504L537.838 17.4679L537.759 18.2741L537.631 20.2502L537.568 21.3093L537.456 23.8386L537.409 25.1665L537.313 28.3123L537.265 29.9563L537.201 33.7661L537.154 35.7579L537.106 40.2948L537.074 42.666L537.026 48.0092L536.931 67.3583V71.0574L536.915 79.1827V83.3877L536.899 92.588V202.312L554.814 202.296L558.381 202.28L565.038 202.012L568.286 201.822L574.322 201.174L577.268 200.794L582.746 199.767L585.421 199.198L590.358 197.775L592.778 197L597.237 195.167L599.419 194.187L603.448 191.926L605.407 190.74L609.022 188.037L614.054 183.484L615.646 181.856L618.56 179.532L619.994 178.521L622.558 177.446L623.8 177.066L626.029 177.24L628.943 178.916L629.739 179.706L630.536 181.414L630.806 182.283L630.552 184.212L630.297 185.208L628.991 187.389L625.806 191.025L624.93 191.879L622.526 193.728L621.22 194.677L618.13 196.637L616.506 197.633L612.891 199.625L611.028 200.605L607.095 202.533L603.098 204.43L594.912 207.671L592.906 208.414L589.068 209.631L583.781 211.006L581.743 211.433L577.045 212.097L574.592 212.398L569.226 212.84L563.748 213.22L551.916 213.283L548.954 213.251L543.141 212.998L540.275 212.84L534.813 212.366L532.153 212.113L527.296 211.417L524.971 211.054L520.974 210.137L516.324 208.951L507.486 205.821L503.171 204.146L495.017 200.067L491.036 197.917L483.631 192.938L480.016 190.345L473.391 184.512L470.175 181.493L464.362 174.837L461.575 171.423L456.639 164.009L454.298 160.199L450.285 152.058L445.364 139.08L444.839 137.404L443.947 133.357L443.533 131.239L442.864 126.496L442.561 124.062L442.116 118.877L441.908 116.237L441.701 110.815L441.542 105.393L441.94 94.8643L442.1 92.335L442.609 87.6559L443.676 81.4433L444.393 78.2342L446.256 72.0375L447.259 68.9865L449.664 63.0901L450.938 60.1972L453.868 54.6328L455.397 51.898L458.82 46.6813L460.588 44.1204L464.474 39.2831L466.48 36.8961L470.812 32.4382L473.041 30.2409L477.787 26.1782L480.223 24.1864L485.367 20.5347L487.994 18.7484L493.52 15.5235L496.323 13.9585L502.183 11.1763L505.161 9.84843L511.34 7.52464L514.477 6.43388L520.958 4.58433L524.223 3.7307L530.975 2.38701L534.383 1.7863L541.39 0.964282L544.909 0.616502L552.123 0.316151M268.967 2.70317L274.843 2.7664L286.58 2.97191L292.36 3.09837L302.998 3.41454L305.53 3.49357L310.18 3.68327L312.425 3.77812L316.391 3.98363L318.286 4.09428L321.407 4.3314L325.006 4.69499L328.796 5.21666L336.599 6.8607L340.516 7.76176L348.24 10.1014L352.046 11.3344L359.228 14.1957L368.894 18.9381L370.295 19.7443L373.337 21.8468L374.882 22.985L378.13 25.6723L381.379 28.4862L387.94 35.2046L391.141 38.6666L396.794 45.8434L398.1 47.614L400.377 51.0285L403.116 55.8816L404.979 59.6597L408.005 67.6112L409.406 71.6265L411.492 79.9415L412.416 84.1149L413.563 92.6354L414.024 96.9036L414.231 105.472L414.216 109.756L413.483 118.229L413.005 122.449L411.333 130.701L410.394 134.764L407.782 142.621L402.829 153.797L402.017 155.33L399.852 158.682L398.673 160.405L395.87 164.041L392.956 167.708L385.886 175.217L382.255 178.9L374.675 185.524L372.796 187.073L369.165 189.776L364.021 193.127L360.932 194.914L355.135 197.949L352.253 199.387L346.552 201.806L343.669 202.944L337.634 204.81L334.545 205.695L327.761 207.102L324.225 207.75L316.263 208.762L314.193 208.999L309.718 209.41L307.441 209.615L302.536 209.947L300.02 210.105L294.622 210.39L291.867 210.516L285.927 210.753L282.869 210.864L276.324 211.054L265.782 211.291L219.999 212.239V94.0265L220.015 89.3947V80.7793L220.031 76.5902L220.047 68.8126L220.142 48.4518L220.174 45.4324L220.222 39.947L220.238 37.2913L220.333 30.1618L220.413 26.0201L220.445 24.0283L220.524 20.4873L220.572 18.7958L220.668 15.8555L220.731 14.4486L220.843 12.0458L220.891 10.9076L221.018 9.02641L221.082 8.14115L221.225 6.71843L221.305 6.07029L221.464 5.09019L221.989 3.62004L222.165 3.50939L223.454 3.30388L224.235 3.20903L226.623 3.05095L227.945 2.97191L231.273 2.86125L233.057 2.79802L237.197 2.71898L239.347 2.68736L244.141 2.63994L246.609 2.62413L251.896 2.60832H257.294M294.845 14.1957V199.625L314.83 198.328L324.353 196.858L326.662 196.416L331.121 195.372L333.287 194.835L337.363 193.554L340.373 192.558L346.233 190.108L349.132 188.796L354.721 185.792L357.476 184.227L362.747 180.702L365.343 178.9L370.216 174.932L372.604 172.893L377.047 168.53L379.197 166.317L383.115 161.606L385.01 159.219L388.354 154.224L392.67 146.462L393.816 144.091L395.759 139.206L396.683 136.74L398.195 131.713L398.896 129.184L399.995 124.046L400.473 121.454L401.141 116.237L401.699 111.004L401.603 100.492L401.348 95.2437L399.66 84.921L398.625 79.8308L395.424 70.014L394.533 67.6112L392.478 62.9478L391.396 60.6398L388.975 56.2136L387.733 54.032L384.962 49.8587L383.529 47.8195L380.423 43.9781L378.831 42.0969L375.375 38.5875L369.85 33.7661L367.923 32.2643L363.639 29.4821L361.409 28.1384L356.568 25.6565L354.084 24.4551L348.781 22.321L346.074 21.2777L340.405 19.4914L337.523 18.6377L331.551 17.2308L328.541 16.5827L322.362 15.571L319.257 15.1125L312.967 14.5434L303.492 14.1957H294.845Z" fill="white"/>
<path d="M0.11146 181.098L0.015916 179.817L0 179.027L0.0796035 176.513L0.143315 175.122L0.509575 169.652L0.891774 165.195L1.09878 162.871L1.59246 157.686L1.86318 155.014L2.45238 149.26L3.07344 143.395L4.52258 130.67L5.27104 124.267L6.87942 111.447L7.27754 108.301L8.07377 102.231L9.65031 90.8333L10.4147 85.7905L10.7809 83.3561L11.4657 79.0721L11.8161 77.0487L12.4371 73.6973L13.2493 69.9034L14.4914 65.0187L17.6445 55.9765L19.3325 51.566L23.3455 43.4565L25.4635 39.5202L30.3523 32.3592L38.6331 22.7162L40.6715 20.6612L44.9234 17.0253L47.0732 15.2864L51.5958 12.2355L53.8889 10.7811L58.73 8.28345L61.2142 7.11365L66.4853 5.15346L69.1766 4.23658L74.9254 2.79804L77.8714 2.1341L84.1935 1.16981L87.4421 0.758784L94.4171 0.252937L105.66 2.94364e-07L109.052 0L115.008 0.205512L117.874 0.33198L123.018 0.774604L125.518 1.04334L130.088 1.7547L132.334 2.1499L136.601 3.17744L139.181 3.84138L144.006 5.50121L146.379 6.37066L150.79 8.44151L152.94 9.53227L156.921 12.0142L158.848 13.3104L162.415 16.2191L164.135 17.7367L167.288 21.0722L168.801 22.7953L171.54 26.5576L172.846 28.502L175.171 32.7069L178.212 39.5202L178.69 40.8007L179.614 43.9307L180.06 45.5589L180.872 49.2422L181.668 53.0519L182.831 61.5725L183.34 65.8723L183.818 74.3138L183.882 76.3531L183.85 80.147L183.563 85.2688L182.512 95.5441L156.778 107.78L153.243 109.471L146.315 112.728L142.924 114.308L132.795 119.003L131.537 119.572L129.388 120.553L128.368 120.995L126.744 121.722L125.008 122.449L118.973 124.884L120.454 112.538L121.409 103.764L121.855 99.5278L122.572 91.8292L122.89 88.1301L123.352 81.4907L123.543 78.2975L123.766 72.7014L123.846 70.0141L123.814 65.4297L123.766 63.2482L123.48 59.6281L123.304 57.9525L122.779 55.2967L121.728 52.3722L121.075 51.2024L119.26 49.1474L118.272 48.1673L115.915 46.5074L114.673 45.717L111.871 44.484L110.421 43.9307L107.316 43.1403L105.74 42.8083L102.443 42.4922L100.787 42.4131L97.4269 42.6028L95.7548 42.7609L92.4743 43.4881L87.7447 45.2112L86.1841 45.9383L83.461 47.7088L82.1711 48.6731L79.9257 51.1076L78.8428 52.4354L76.9796 55.85L76.0879 57.7154L74.4954 62.4262L74.1132 63.6908L73.3807 66.5205L73.0303 67.9906L72.3456 71.2629L71.9952 72.9544L71.3423 76.6851L71.0079 78.6136L70.355 82.8502L70.0365 85.0317L69.3995 89.8216L69.081 92.2718L68.4281 97.6308L68.1096 100.397L67.4408 106.373L66.4057 116.095L65.912 120.884L64.861 129.721L64.6062 131.84L64.0966 135.776L63.8418 137.688L63.3482 141.119L63.1093 142.763L62.6634 145.608L62.4405 146.952L62.0264 149.102L61.8353 150.066L61.5009 151.426L61.0869 152.453L60.8799 152.659L59.8447 153.307L59.2555 153.686L57.5357 154.651L56.5961 155.156L54.2871 156.374L53.0768 157.022L50.274 158.445L47.3917 159.899L40.6078 163.234L37.1203 164.926L26.1164 170.158L19.0458 173.415L15.638 174.98L9.71401 177.62L8.34449 178.205L5.9558 179.216L4.82516 179.691L3.00975 180.418L2.19758 180.734L1.05101 181.098L0.23886 181.208" fill="#5172FE"/>
<path d="M232.671 267.609V270.318H223.632V267.609H232.671ZM224.775 253.461V270.318H221.276V253.461H224.775ZM231.493 260.326V262.966H223.632V260.326H231.493ZM232.66 253.461V256.181H223.632V253.461H232.66Z" fill="white"/>
<path d="M278.393 253.461V270.318H274.894L268.07 259.018V270.318H264.571V253.461H268.07L274.905 264.772V253.461H278.393Z" fill="white"/>
<path d="M324.755 261.507V268.188C324.491 268.504 324.083 268.848 323.531 269.218C322.978 269.581 322.267 269.894 321.396 270.156C320.525 270.419 319.472 270.55 318.235 270.55C317.139 270.55 316.14 270.372 315.238 270.017C314.336 269.655 313.558 269.126 312.905 268.431C312.26 267.736 311.762 266.887 311.412 265.884C311.062 264.873 310.887 263.719 310.887 262.422V261.368C310.887 260.072 311.054 258.918 311.389 257.907C311.731 256.895 312.217 256.042 312.847 255.348C313.477 254.653 314.227 254.124 315.098 253.762C315.969 253.399 316.937 253.217 318.002 253.217C319.479 253.217 320.692 253.457 321.641 253.935C322.59 254.406 323.313 255.062 323.81 255.904C324.316 256.737 324.627 257.694 324.744 258.775H321.349C321.264 258.204 321.101 257.706 320.86 257.281C320.619 256.857 320.272 256.525 319.822 256.286C319.378 256.046 318.803 255.927 318.095 255.927C317.512 255.927 316.991 256.046 316.532 256.286C316.081 256.517 315.7 256.861 315.389 257.316C315.078 257.771 314.841 258.335 314.678 259.006C314.515 259.678 314.433 260.458 314.433 261.345V262.422C314.433 263.302 314.518 264.082 314.69 264.761C314.861 265.432 315.113 266 315.448 266.463C315.79 266.918 316.21 267.262 316.707 267.493C317.205 267.725 317.784 267.841 318.445 267.841C318.997 267.841 319.456 267.794 319.822 267.702C320.195 267.609 320.494 267.497 320.72 267.366C320.953 267.227 321.132 267.096 321.256 266.972V263.985H318.06V261.507H324.755Z" fill="white"/>
<path d="M368.832 267.609V270.318H359.792V267.609H368.832ZM360.936 253.461V270.318H357.436V253.461H360.936ZM367.654 260.326V262.966H359.792V260.326H367.654ZM368.82 253.461V256.181H359.792V253.461H368.82Z" fill="white"/>
<path d="M414.553 253.461V270.318H411.054L404.231 259.018V270.318H400.732V253.461H404.231L411.065 264.772V253.461H414.553Z" fill="white"/>
<path d="M458.781 260.326V263.036H449.917V260.326H458.781ZM450.955 253.461V270.318H447.456V253.461H450.955ZM461.277 253.461V270.318H457.79V253.461H461.277Z" fill="white"/>
<path d="M501.295 256.343L496.676 270.318H492.955L499.265 253.461H501.633L501.295 256.343ZM505.132 270.318L500.502 256.343L500.128 253.461H502.519L508.864 270.318H505.132ZM504.922 264.043V266.764H495.953V264.043H504.922Z" fill="white"/>
<path d="M540.298 253.461H546.631C547.929 253.461 549.045 253.653 549.978 254.039C550.919 254.425 551.642 254.997 552.148 255.753C552.653 256.509 552.906 257.44 552.906 258.543C552.906 259.446 552.75 260.222 552.439 260.871C552.136 261.511 551.705 262.048 551.145 262.48C550.593 262.904 549.943 263.244 549.197 263.499L548.089 264.078H542.584L542.56 261.368H546.654C547.268 261.368 547.778 261.26 548.182 261.044C548.586 260.828 548.89 260.527 549.092 260.141C549.302 259.755 549.407 259.308 549.407 258.798C549.407 258.258 549.306 257.791 549.104 257.397C548.901 257.003 548.594 256.702 548.182 256.494C547.77 256.286 547.253 256.181 546.631 256.181H543.797V270.318H540.298V253.461ZM549.792 270.318L545.919 262.804L549.617 262.781L553.536 270.156V270.318H549.792Z" fill="white"/>
<path d="M589.179 253.461V270.318H585.692V253.461H589.179Z" fill="white"/>
<path d="M629.43 256.343L624.812 270.318H621.091L627.401 253.461H629.769L629.43 256.343ZM633.268 270.318L628.637 256.343L628.264 253.461H630.655L637 270.318H633.268ZM633.058 264.043V266.764H624.088V264.043H633.058Z" fill="white"/>
</svg>
