<svg width="190" height="85" viewBox="0 0 190 85" fill="none" xmlns="http://www.w3.org/2000/svg">
<path d="M57.8869 31.1773L57.9154 31.5579L57.9201 31.7928L57.8964 32.5398L57.8774 32.9532L57.7682 34.5788L57.6542 35.9037L57.5924 36.5943L57.4452 38.1354L57.3644 38.9294L57.1887 40.6395L57.0034 42.3825L56.5712 46.1646L56.3479 48.0674L55.8682 51.8776L55.7494 52.8126L55.512 54.6167L55.0417 58.0041L54.8137 59.5028L54.7045 60.2263L54.5002 61.4996L54.3957 62.1009L54.2105 63.097L53.9682 64.2245L53.5978 65.6763L52.6573 68.3636L52.1538 69.6744L50.9568 72.0846L50.3251 73.2545L48.8669 75.3828L46.3969 78.2487L45.7889 78.8594L44.5207 79.94L43.8795 80.4568L42.5305 81.3636L41.8465 81.7958L40.4026 82.5381L39.6616 82.8858L38.0894 83.4684L37.2866 83.7409L35.5719 84.1684L34.6932 84.3657L32.8075 84.6523L31.8385 84.7745L29.7581 84.9248L26.4046 85H25.3929L23.6164 84.9389L22.7615 84.9013L21.2273 84.7698L20.4815 84.6899L19.1183 84.4785L18.4486 84.361L17.1756 84.0557L16.4061 83.8583L14.9669 83.365L14.2592 83.1066L12.9434 82.4912L12.3022 82.167L11.1147 81.4294L10.54 81.0441L9.47603 80.1796L8.96304 79.7286L8.02256 78.7373L7.57132 78.2252L6.75434 77.107L6.36485 76.5291L5.67137 75.2794L4.76414 73.2545L4.62164 72.8739L4.34615 71.9437L4.21315 71.4598L3.97091 70.3651L3.73341 69.2328L3.38667 66.7005L3.23467 65.4226L3.09218 62.9137L3.07318 62.3076L3.08268 61.1801L3.16817 59.6579L3.48167 56.604L11.1575 52.9676L12.212 52.4649L14.2782 51.4971L15.2899 51.0272L18.3108 49.6319L18.6861 49.4627L19.3273 49.1714L19.6313 49.0399L20.1158 48.8238L20.6335 48.6077L22.4337 47.8841L21.992 51.5534L21.707 54.1609L21.574 55.4201L21.3603 57.7081L21.2653 58.8075L21.1275 60.7807L21.0705 61.7298L21.004 63.3929L20.9803 64.1916L20.9898 65.5541L21.004 66.2025L21.0895 67.2784L21.1418 67.7764L21.2985 68.5657L21.612 69.4348L21.8067 69.7825L22.3482 70.3933L22.6427 70.6846L23.3457 71.1779L23.7162 71.4128L24.5522 71.7792L24.9844 71.9437L25.9106 72.1786L26.3809 72.2772L27.3641 72.3712L27.8581 72.3947L28.8603 72.3383L29.3591 72.2913L30.3375 72.0752L31.7483 71.5631L32.2137 71.347L33.026 70.8208L33.4107 70.5342L34.0805 69.8107L34.4034 69.416L34.9592 68.4012L35.2252 67.8468L35.7002 66.4468L35.8142 66.0709L36.0327 65.2299L36.1372 64.793L36.3414 63.8205L36.4459 63.3178L36.6406 62.209L36.7404 61.6358L36.9351 60.3767L37.0301 59.7283L37.2201 58.3048L37.3151 57.5765L37.5099 55.9839L37.6049 55.1617L37.8044 53.3857L38.1131 50.4963L38.2604 49.0728L38.5738 46.4465L38.6498 45.8169L38.8018 44.6471L38.8778 44.0786L39.0251 43.0591L39.0963 42.5705L39.2293 41.7248L39.2958 41.3254L39.4193 40.6865L39.4763 40.3999L39.5761 39.9958L39.6996 39.6905L39.7613 39.6294L40.0701 39.4368L40.2458 39.324L40.7588 39.0374L41.039 38.8871L41.7278 38.5253L42.0888 38.3327L42.9247 37.9098L43.7845 37.4776L45.8079 36.4863L46.8482 35.9836L50.1303 34.4285L52.2393 33.4606L53.2558 32.9955L55.0227 32.2109L55.4312 32.0371L56.1437 31.7364L56.4809 31.5954L57.0224 31.3793L57.2647 31.2854L57.6067 31.1773L57.8489 31.1444M167.98 0.145641L168.697 0.183226L170.041 0.291285L170.697 0.347663L171.932 0.498007L173.148 0.657745L175.375 1.14636L176.473 1.42355L178.615 2.17057L181.959 3.6505L182.472 3.90421L183.384 4.39752L183.816 4.63713L184.566 5.10695L184.918 5.34186L185.512 5.78819L185.787 6.0137L186.219 6.44594L186.419 6.66206L186.699 7.0755L186.823 7.28222L186.951 7.68627L186.994 7.88829L186.975 8.27824L186.775 8.86082L186.585 9.20379L186.12 9.61253L185.868 9.76757L185.241 9.78637L184.908 9.75348L184.101 9.38702L182.652 8.40039L181.987 7.87889L180.691 7.00503L180.035 6.59628L178.648 5.90095L177.936 5.56737L176.34 4.98949L173.566 4.1908L173.129 4.07804L172.084 3.88542L171.542 3.79145L170.345 3.63171L169.12 3.48137L166.541 3.30754L165.909 3.27935L164.712 3.25116L164.128 3.24646L163.083 3.26995L162.584 3.29344L161.772 3.37331L160.893 3.56594L160.807 3.59882L160.67 3.82434L160.603 3.97938L160.494 4.56666L160.465 4.74049L160.423 5.19152L160.399 5.43113L160.361 6.0184L160.342 6.33318L160.309 7.08489L160.295 7.47954L160.266 8.41449L160.252 8.9031L160.233 10.0354L160.219 10.6273L160.204 11.9757L160.195 12.6805L160.181 14.2685L160.152 20.0191V21.1184L160.147 23.5333V24.783L160.143 27.5174V60.1277L165.486 60.123L166.55 60.1183L168.536 60.0384L169.505 59.982L171.305 59.7894L172.183 59.6766L173.817 59.3713L174.615 59.2021L176.088 58.7793L176.81 58.5491L178.14 58.0041L178.791 57.7128L179.992 57.041L180.577 56.6886L181.655 55.8852L183.156 54.5321L183.631 54.0482L184.5 53.3576L184.927 53.0569L185.692 52.7374L186.063 52.6246L186.728 52.6763L187.597 53.1743L187.834 53.4092L188.072 53.9166L188.153 54.175L188.077 54.7482L188.001 55.0442L187.611 55.6926L186.661 56.7732L186.4 57.0269L185.683 57.5765L185.293 57.8584L184.372 58.441L183.887 58.737L182.809 59.329L182.253 59.6203L181.08 60.1935L179.888 60.7572L177.446 61.7204L176.848 61.9412L175.703 62.303L174.126 62.7117L173.518 62.8385L172.117 63.0359L171.385 63.1251L169.785 63.2567L168.151 63.3694L164.622 63.3882L163.738 63.3788L162.004 63.3037L161.149 63.2567L159.52 63.1157L158.727 63.0406L157.278 62.8338L156.585 62.7258L155.393 62.4533L154.006 62.1009L151.369 61.1707L150.082 60.6727L147.65 59.4605L146.463 58.8216L144.254 57.3416L143.176 56.5711L141.2 54.8375L140.24 53.9401L138.507 51.9622L137.676 50.9474L136.203 48.7439L135.505 47.6116L134.308 45.1921L132.84 41.3348L132.683 40.8368L132.417 39.6341L132.294 39.0045L132.094 37.5951L132.004 36.8715L131.871 35.3305L131.809 34.5459L131.748 32.9344L131.7 31.323L131.819 28.1939L131.866 27.4422L132.018 26.0516L132.337 24.2052L132.55 23.2514L133.106 21.4097L133.405 20.503L134.123 18.7505L134.503 17.8908L135.377 16.237L135.833 15.4242L136.854 13.8738L137.381 13.1127L138.54 11.675L139.139 10.9656L140.43 9.64072L141.095 8.98767L142.511 7.78023L143.238 7.18826L144.772 6.10297L145.556 5.57207L147.204 4.61364L148.04 4.14851L149.788 3.32163L150.676 2.92698L152.519 2.23634L153.455 1.91217L155.388 1.36248L156.362 1.10877L158.376 0.709425L159.392 0.530894L161.482 0.286587L162.532 0.183226L164.683 0.0939608M80.2256 0.80339L81.9783 0.822183L85.479 0.88326L87.2032 0.920845L90.3761 1.01481L91.1314 1.0383L92.5183 1.09468L93.1881 1.12287L94.3708 1.18395L94.936 1.21683L95.867 1.2873L96.9405 1.39536L98.071 1.55041L100.398 2.03902L101.567 2.30682L103.871 3.00215L105.006 3.36861L107.148 4.21899L110.031 5.62845L110.449 5.86806L111.356 6.49292L111.817 6.83119L112.786 7.62989L113.755 8.46617L115.712 10.4629L116.667 11.4918L118.353 13.6248L118.742 14.151L119.422 15.1658L120.239 16.6082L120.794 17.731L121.697 20.0942L122.115 21.2876L122.737 23.7588L123.013 24.9992L123.355 27.5315L123.492 28.8L123.554 31.3464L123.549 32.6197L123.331 35.1379L123.188 36.3923L122.69 38.8448L122.409 40.0522L121.63 42.3872L120.153 45.7089L119.911 46.1646L119.265 47.1606L118.913 47.6727L118.077 48.7533L117.208 49.8433L115.099 52.0749L114.016 53.1696L111.755 55.1382L111.195 55.5986L110.112 56.402L108.578 57.398L107.656 57.9289L105.927 58.831L105.068 59.2585L103.367 59.9773L102.507 60.3156L100.707 60.87L99.7857 61.1331L97.7622 61.5512L96.7077 61.7439L94.3328 62.0445L93.7153 62.115L92.3806 62.2372L91.7014 62.2982L90.2384 62.3969L89.4879 62.4439L87.8777 62.5285L87.056 62.5661L85.2843 62.6365L84.3723 62.6694L82.4201 62.7258L79.2757 62.7963L65.6197 63.0782V27.9449L65.6245 26.5684V24.0078L65.6292 22.7628L65.634 20.4513L65.6625 14.4L65.672 13.5027L65.6862 11.8724L65.691 11.0831L65.7195 8.96418L65.7432 7.73325L65.7527 7.14127L65.7765 6.08887L65.7907 5.58617L65.8192 4.7123L65.8382 4.29416L65.8715 3.58003L65.8857 3.24176L65.9237 2.68267L65.9427 2.41957L65.9855 1.99674L66.0092 1.80411L66.0567 1.51282L66.2135 1.07589L66.2657 1.043L66.6505 0.981922L66.8832 0.953732L67.5957 0.906751L67.9899 0.88326L68.9826 0.850373L69.5146 0.83158L70.7496 0.808089L71.3908 0.798692L72.8206 0.784596L73.5568 0.779899L75.1337 0.7752H76.744M87.9442 4.21899V59.329L93.9053 58.9437L96.7457 58.5068L97.4345 58.3752L98.7645 58.0652L99.4104 57.9054L100.626 57.5249L101.524 57.2289L103.272 56.5007L104.137 56.1107L105.804 55.218L106.626 54.7529L108.198 53.7052L108.972 53.1696L110.425 51.9904L111.138 51.3843L112.463 50.0876L113.104 49.4299L114.273 48.0298L114.838 47.3204L115.836 45.8357L117.123 43.5289L117.465 42.8242L118.044 41.3724L118.32 40.6395L118.771 39.1455L118.98 38.3938L119.308 36.8668L119.45 36.0963L119.65 34.5459L119.816 32.9908L119.787 29.8665L119.711 28.3067L119.208 25.2388L118.899 23.726L117.945 20.8084L117.679 20.0942L117.066 18.7083L116.743 18.0223L116.021 16.7068L115.65 16.0585L114.824 14.8181L114.396 14.2121L113.47 13.0704L112.995 12.5113L111.964 11.4683L110.316 10.0354L109.741 9.58904L108.464 8.76216L107.799 8.36281L106.355 7.62519L105.614 7.26813L104.032 6.63387L103.225 6.32379L101.534 5.79289L100.674 5.53919L98.8927 5.12104L97.995 4.92842L96.152 4.62773L95.2258 4.49149L93.3496 4.32235L90.5234 4.21899H87.9442Z" fill="white"/>
<path d="M0.0332455 53.8227L0.0047473 53.4421L0 53.2072L0.0237436 52.4602L0.0427472 52.0468L0.151992 50.4212L0.265992 49.0963L0.327736 48.4057L0.474988 46.8646L0.555736 46.0706L0.731479 44.3605L0.916724 42.6175L1.34897 38.8354L1.57221 36.9326L2.05195 33.1224L2.17069 32.1874L2.40819 30.3833L2.87843 26.9959L3.10642 25.4972L3.21567 24.7737L3.41992 23.5004L3.52441 22.8991L3.70966 21.903L3.9519 20.7755L4.32239 19.3237L5.26287 16.6364L5.76636 15.3256L6.96333 12.9154L7.59506 11.7455L9.05328 9.61724L11.5232 6.75133L12.1312 6.14056L13.3994 5.05997L14.0407 4.54317L15.3896 3.63642L16.0736 3.20418L17.5176 2.46187L18.2586 2.1142L19.8308 1.53162L20.6335 1.25912L22.3482 0.831586L23.2269 0.634262L25.1127 0.347671L26.0816 0.225513L28.1621 0.0751734L31.5155 8.74858e-08L32.5272 0L34.3037 0.0610789L35.1587 0.0986653L36.6929 0.230214L37.4386 0.310083L38.8018 0.521501L39.4716 0.638956L40.7445 0.944344L41.514 1.14167L42.9532 1.63497L43.661 1.89338L44.9767 2.50884L45.6179 2.83302L46.8054 3.57064L47.3801 3.95589L48.4441 4.82037L48.9571 5.27139L49.8976 6.26271L50.3488 6.77482L51.1658 7.89299L51.5553 8.47087L52.2488 9.72059L53.156 11.7455L53.2985 12.1261L53.574 13.0563L53.707 13.5402L53.9492 14.6349L54.1867 15.7672L54.5335 18.2995L54.6855 19.5774L54.828 22.0863L54.847 22.6923L54.8375 23.8199L54.752 25.3421L54.4385 28.396L46.7627 32.0324L45.7082 32.5351L43.642 33.5029L42.6303 33.9727L39.6093 35.3681L39.2341 35.5373L38.5928 35.8285L38.2889 35.9601L37.8044 36.1762L37.2866 36.3923L35.4864 37.1159L35.9282 33.4466L36.2131 30.839L36.3461 29.5799L36.5599 27.2919L36.6549 26.1925L36.7926 24.2193L36.8496 23.2702L36.9161 21.6071L36.9399 20.8084L36.9304 19.4459L36.9161 18.7975L36.8306 17.7216L36.7784 17.2236L36.6216 16.4343L36.3081 15.5652L36.1134 15.2175L35.5719 14.6067L35.2774 14.3154L34.5744 13.8221L34.2039 13.5872L33.368 13.2208L32.9357 13.0563L32.0095 12.8214L31.5393 12.7228L30.556 12.6288L30.062 12.6053L29.0598 12.6617L28.5611 12.7087L27.5826 12.9248L26.1719 13.4369L25.7064 13.653L24.8942 14.1792L24.5094 14.4658L23.8397 15.1893L23.5167 15.584L22.961 16.5988L22.695 17.1532L22.22 18.5532L22.106 18.9291L21.8875 19.7701L21.783 20.207L21.5787 21.1795L21.4742 21.6822L21.2795 22.791L21.1798 23.3642L20.985 24.6233L20.89 25.2717L20.7 26.6952L20.605 27.4234L20.4103 29.0161L20.3153 29.8383L20.1158 31.6143L19.807 34.5037L19.6598 35.9272L19.3463 38.5535L19.2703 39.1831L19.1183 40.3529L19.0423 40.9214L18.8951 41.9409L18.8238 42.4295L18.6908 43.2752L18.6243 43.6746L18.5008 44.3135L18.4438 44.6001L18.3441 45.0041L18.2206 45.3095L18.1588 45.3706L17.8501 45.5632L17.6743 45.676L17.1613 45.9626L16.8811 46.1129L16.1924 46.4747L15.8314 46.6673L14.9954 47.0902L14.1357 47.5224L12.1122 48.5137L11.072 49.0164L7.78982 50.5715L5.68086 51.5394L4.66439 52.0045L2.89743 52.7891L2.48894 52.9629L1.77645 53.2636L1.43922 53.4045L0.897729 53.6207L0.65548 53.7146L0.313487 53.8227L0.0712455 53.8556" fill="white"/>
<path d="M69.3997 79.5342V80.3394H66.7035V79.5342H69.3997ZM67.0444 75.3292V80.3394H66.0007V75.3292H67.0444ZM69.0483 77.3697V78.1543H66.7035V77.3697H69.0483ZM69.3962 75.3292V76.1378H66.7035V75.3292H69.3962Z" fill="white"/>
<path d="M83.037 75.3292V80.3394H81.9934L79.9582 76.9809V80.3394H78.9145V75.3292H79.9582L81.9968 78.6911V75.3292H83.037Z" fill="white"/>
<path d="M96.8658 77.7207V79.7062C96.7869 79.8003 96.6651 79.9024 96.5005 80.0125C96.3358 80.1203 96.1236 80.2132 95.8638 80.2912C95.6041 80.3692 95.2898 80.4082 94.921 80.4082C94.594 80.4082 94.296 80.3554 94.027 80.2499C93.7579 80.1421 93.526 79.9849 93.3312 79.7785C93.1387 79.572 92.9902 79.3197 92.8859 79.0214C92.7815 78.7209 92.7293 78.378 92.7293 77.9926V77.6794C92.7293 77.294 92.7792 76.9511 92.8789 76.6505C92.9809 76.35 93.1259 76.0965 93.3138 75.8901C93.5016 75.6836 93.7254 75.5265 93.9852 75.4186C94.245 75.3108 94.5337 75.2569 94.8514 75.2569C95.2921 75.2569 95.6539 75.328 95.9369 75.4703C96.2198 75.6102 96.4355 75.8052 96.584 76.0552C96.7347 76.303 96.8275 76.5875 96.8623 76.9086H95.8499C95.8244 76.7389 95.7757 76.5909 95.7038 76.4647C95.6319 76.3386 95.5287 76.2399 95.3942 76.1688C95.262 76.0977 95.0903 76.0621 94.8793 76.0621C94.7053 76.0621 94.5499 76.0977 94.4131 76.1688C94.2786 76.2376 94.1649 76.3397 94.0722 76.4751C93.9794 76.6104 93.9087 76.7779 93.86 76.9774C93.8113 77.177 93.7869 77.4087 93.7869 77.6725V77.9926C93.7869 78.2541 93.8124 78.4858 93.8634 78.6877C93.9145 78.8872 93.9898 79.0559 94.0896 79.1935C94.1916 79.3288 94.3169 79.4309 94.4653 79.4997C94.6137 79.5686 94.7865 79.603 94.9837 79.603C95.1483 79.603 95.2852 79.5892 95.3942 79.5617C95.5055 79.5342 95.5948 79.5009 95.662 79.4619C95.7316 79.4206 95.785 79.3816 95.8221 79.3449V78.4571H94.8688V77.7207H96.8658Z" fill="white"/>
<path d="M110.013 79.5342V80.3394H107.316V79.5342H110.013ZM107.657 75.3292V80.3394H106.614V75.3292H107.657ZM109.661 77.3697V78.1543H107.316V77.3697H109.661ZM110.009 75.3292V76.1378H107.316V75.3292H110.009Z" fill="white"/>
<path d="M123.65 75.3292V80.3394H122.606L120.571 76.9809V80.3394H119.527V75.3292H120.571L122.61 78.6911V75.3292H123.65Z" fill="white"/>
<path d="M136.842 77.3697V78.1749H134.198V77.3697H136.842ZM134.508 75.3292V80.3394H133.464V75.3292H134.508ZM137.587 75.3292V80.3394H136.546V75.3292H137.587Z" fill="white"/>
<path d="M149.523 76.186L148.145 80.3394H147.035L148.917 75.3292H149.624L149.523 76.186ZM150.667 80.3394L149.286 76.186L149.175 75.3292H149.888L151.781 80.3394H150.667ZM150.605 78.4743V79.283H147.929V78.4743H150.605Z" fill="white"/>
<path d="M161.156 75.3292H163.045C163.433 75.3292 163.765 75.3865 164.044 75.5012C164.324 75.6159 164.54 75.7857 164.691 76.0105C164.842 76.2353 164.917 76.5118 164.917 76.8398C164.917 77.1082 164.871 77.3388 164.778 77.5315C164.687 77.7219 164.559 77.8813 164.392 78.0098C164.227 78.1359 164.033 78.2369 163.811 78.3126L163.48 78.4846H161.838L161.831 77.6794H163.052C163.235 77.6794 163.387 77.6473 163.508 77.5831C163.629 77.5188 163.719 77.4294 163.779 77.3147C163.842 77.2 163.873 77.0669 163.873 76.9155C163.873 76.7549 163.843 76.6161 163.783 76.4991C163.723 76.3821 163.631 76.2927 163.508 76.2307C163.385 76.1688 163.231 76.1378 163.045 76.1378H162.2V80.3394H161.156V75.3292ZM163.988 80.3394L162.833 78.1061L163.936 78.0992L165.105 80.2912V80.3394H163.988Z" fill="white"/>
<path d="M175.736 75.3292V80.3394H174.696V75.3292H175.736Z" fill="white"/>
<path d="M187.742 76.186L186.365 80.3394H185.255L187.137 75.3292H187.843L187.742 76.186ZM188.887 80.3394L187.506 76.186L187.394 75.3292H188.107L190 80.3394H188.887ZM188.824 78.4743V79.283H186.149V78.4743H188.824Z" fill="white"/>
</svg>
